<?xml version="1.0" encoding="utf-8"?>
<!-- Generator: Adobe Illustrator 24.1.0, SVG Export Plug-In . SVG Version: 6.00 Build 0)  -->
<svg version="1.1" id="Layer_1" xmlns="http://www.w3.org/2000/svg" xmlns:xlink="http://www.w3.org/1999/xlink" x="0px" y="0px"
	 viewBox="0 0 257.71 242.97" style="enable-background:new 0 0 257.71 242.97;" xml:space="preserve">
<style type="text/css">
	.st0{fill:#FFFFFF;stroke:#010101;stroke-miterlimit:10;}
	.st1{fill:#FFFFFF;}
	.st2{fill:#010101;}
</style>
<rect x="47.27" y="68.56" class="st0" width="159.59" height="105.84"/>
<g>
	<line class="st1" x1="61.64" y1="88.77" x2="93.73" y2="88.77"/>
	<rect x="61.64" y="87.84" class="st2" width="32.08" height="1.86"/>
</g>
<g>
	<line class="st1" x1="62.06" y1="102.94" x2="188.52" y2="102.94"/>
	<rect x="62.06" y="102.01" class="st2" width="126.46" height="1.86"/>
</g>
<g>
	<line class="st1" x1="62.06" y1="110.44" x2="188.52" y2="110.44"/>
	<rect x="62.06" y="109.51" class="st2" width="126.46" height="1.86"/>
</g>
<g>
	<line class="st1" x1="62.06" y1="117.94" x2="188.52" y2="117.94"/>
	<rect x="62.06" y="117.01" class="st2" width="126.46" height="1.86"/>
</g>
<g>
	<line class="st1" x1="62.06" y1="128.98" x2="188.52" y2="128.98"/>
	<rect x="62.06" y="128.05" class="st2" width="126.46" height="1.86"/>
</g>
<g>
	<line class="st1" x1="62.06" y1="136.48" x2="188.52" y2="136.48"/>
	<rect x="62.06" y="135.55" class="st2" width="126.46" height="1.86"/>
</g>
<g>
	<line class="st1" x1="62.06" y1="143.98" x2="188.52" y2="143.98"/>
	<rect x="62.06" y="143.06" class="st2" width="126.46" height="1.86"/>
</g>
<g>
	<rect x="155.19" y="78.68" class="st2" width="34.38" height="1.86"/>
</g>
</svg>
