<?xml version="1.0" encoding="utf-8"?>
<!-- Generator: Adobe Illustrator 24.1.0, SVG Export Plug-In . SVG Version: 6.00 Build 0)  -->
<svg version="1.1" id="Layer_1" xmlns="http://www.w3.org/2000/svg" xmlns:xlink="http://www.w3.org/1999/xlink" x="0px" y="0px"
	 viewBox="0 0 257.71 242.97" style="enable-background:new 0 0 257.71 242.97;" xml:space="preserve">
<style type="text/css">
	.st0{fill:none;stroke:#010101;stroke-width:2;stroke-miterlimit:10;}
	.st1{fill:none;stroke:#010101;stroke-miterlimit:10;}
	.st2{fill:#FFFFFF;}
	.st3{fill:#010101;}
</style>
<g>
	<path class="st0" d="M212.75,72.08v86.41c0,2.02-1.6,3.64-3.58,3.64H58.33c-2.01,0-3.61-1.61-3.61-3.64V72.08
		c0-1.99,1.6-3.61,3.61-3.61h150.84C211.15,68.48,212.75,70.09,212.75,72.08z"/>
	<path class="st1" d="M186.47,162.13H81l3.74-14.14c0.57-2.19,2.39-3.7,4.43-3.7h89.12c2.04,0,3.83,1.52,4.43,3.7L186.47,162.13z"/>
	<g>
		<path class="st2" d="M203.65,137.65H63.82c-0.63,0-1.15-0.52-1.15-1.15V74.29c0-0.63,0.52-1.15,1.15-1.15h139.82
			c0.63,0,1.15,0.52,1.15,1.15v62.21C204.79,137.13,204.28,137.65,203.65,137.65z"/>
		<path class="st3" d="M201.22,139.21H66.25c-2.83,0-5.13-2.3-5.13-5.13V76.71c0-2.83,2.3-5.13,5.13-5.13h134.97
			c2.83,0,5.13,2.3,5.13,5.13v57.37C206.35,136.91,204.05,139.21,201.22,139.21z M66.25,74.69c-1.11,0-2.02,0.9-2.02,2.02v57.37
			c0,1.11,0.9,2.02,2.02,2.02h134.97c1.11,0,2.02-0.9,2.02-2.02V76.71c0-1.11-0.9-2.02-2.02-2.02H66.25z"/>
	</g>
	<g>
		<circle class="st3" cx="99.03" cy="156.65" r="2.61"/>
		<circle class="st3" cx="107.19" cy="150.77" r="2.21"/>
		<circle class="st3" cx="168.44" cy="156.65" r="2.61"/>
		<circle class="st3" cx="160.28" cy="150.77" r="2.21"/>
	</g>
	<g>
		<path class="st3" d="M175.6,119.26H91.87c-1.3,0-2.36-1.06-2.36-2.36v-15.11c0-1.3,1.06-2.36,2.36-2.36h83.74
			c1.3,0,2.36,1.06,2.36,2.36v15.11C177.96,118.2,176.9,119.26,175.6,119.26z"/>
		<rect x="108.81" y="101.57" class="st2" width="49.06" height="15.55"/>
		<ellipse class="st2" cx="99.96" cy="109.35" rx="7.24" ry="7.51"/>
		<ellipse class="st2" cx="167.78" cy="109.35" rx="7.24" ry="7.51"/>
	</g>
	<rect x="64.12" y="80.76" class="st3" width="139.15" height="9.04"/>
</g>
</svg>
