<?xml version="1.0" encoding="utf-8"?>
<!-- Generator: Adobe Illustrator 24.1.0, SVG Export Plug-In . SVG Version: 6.00 Build 0)  -->
<svg version="1.1" id="Layer_1" xmlns="http://www.w3.org/2000/svg" xmlns:xlink="http://www.w3.org/1999/xlink" x="0px" y="0px"
	 viewBox="0 0 68.89 75.46" style="enable-background:new 0 0 68.89 75.46;" xml:space="preserve">
<style type="text/css">
	.st0{fill:#231F20;}
</style>
<path class="st0" d="M45.58,46.39l-2.2,2.19c-0.71,0.72-1.87,0.72-2.58,0l-6.21-6.21l-6.5,6.49c-0.71,0.72-1.87,0.72-2.58,0
	l-2.2-2.19c-0.71-0.71-0.71-1.87,0-2.58l6.5-6.5l-6.22-6.21c-0.71-0.72-0.71-1.87,0-2.59l2.2-2.19c0.71-0.71,1.87-0.71,2.58,0
	l6.22,6.21l5.93-5.93c0.71-0.71,1.87-0.71,2.58,0l2.2,2.19c0.71,0.72,0.71,1.88,0,2.59l-5.93,5.93l6.21,6.21
	C46.29,44.52,46.29,45.68,45.58,46.39z"/>
</svg>
