<?xml version="1.0" encoding="utf-8"?>
<!-- Generator: Adobe Illustrator 24.1.0, SVG Export Plug-In . SVG Version: 6.00 Build 0)  -->
<svg version="1.1" id="Layer_1" xmlns="http://www.w3.org/2000/svg" xmlns:xlink="http://www.w3.org/1999/xlink" x="0px" y="0px"
	 viewBox="0 0 257.71 242.97" style="enable-background:new 0 0 257.71 242.97;" xml:space="preserve">
<style type="text/css">
	.st0{fill:#010101;}
</style>
<g>
	<g>
		<ellipse class="st0" cx="128.85" cy="75.77" rx="23.67" ry="22.84"/>
		<path class="st0" d="M152.53,98.6v56.7c0,4.86-4.08,8.79-9.12,8.79h-29.13c-5.04,0-9.12-3.94-9.12-8.79V98.6l0-0.16
			c0.01-3.47,4.17-5.23,6.95-3.03c4.55,3.61,10.38,5.78,16.74,5.78c6.35,0,12.17-2.16,16.71-5.76c2.78-2.21,6.95-0.43,6.96,3.04
			L152.53,98.6z"/>
	</g>
	<g>
		<ellipse class="st0" cx="75.44" cy="94.26" rx="23.67" ry="22.84"/>
		<path class="st0" d="M99.12,117.09v56.7c0,4.86-4.08,8.79-9.12,8.79H60.88c-5.04,0-9.12-3.94-9.12-8.79v-56.7l0-0.16
			c0.01-3.47,4.17-5.23,6.95-3.03c4.55,3.61,10.38,5.78,16.74,5.78c6.35,0,12.17-2.16,16.71-5.76c2.78-2.21,6.95-0.43,6.96,3.04
			L99.12,117.09z"/>
	</g>
	<g>
		<ellipse class="st0" cx="182.27" cy="94.26" rx="23.67" ry="22.84"/>
		<path class="st0" d="M205.95,117.09v56.7c0,4.86-4.08,8.79-9.12,8.79H167.7c-5.04,0-9.12-3.94-9.12-8.79v-56.7l0-0.16
			c0.01-3.47,4.17-5.23,6.95-3.03c4.55,3.61,10.38,5.78,16.74,5.78c6.35,0,12.17-2.16,16.71-5.76c2.78-2.21,6.95-0.43,6.96,3.04
			L205.95,117.09z"/>
	</g>
</g>
</svg>
