<?xml version="1.0" encoding="utf-8"?>
<!-- Generator: Adobe Illustrator 24.1.0, SVG Export Plug-In . SVG Version: 6.00 Build 0)  -->
<svg version="1.1" id="Layer_1" xmlns="http://www.w3.org/2000/svg" xmlns:xlink="http://www.w3.org/1999/xlink" x="0px" y="0px"
	 viewBox="0 0 314.99 106" style="enable-background:new 0 0 314.99 106;" xml:space="preserve">
<style type="text/css">
	.st0{fill:none;}
	.st1{fill:#00D1A9;stroke:#00D1A9;stroke-miterlimit:10;}
	.st2{fill:#FFD000;}
	.st3{fill:#FF2763;}
	.st4{fill:#00D1A9;}
</style>
<g>
	<g>
		<path class="st0" d="M22.05,87.92c-1.83,0-3.32-1.56-3.32-3.48V22.59c0-1.92,1.49-3.48,3.32-3.48h270.88
			c1.83,0,3.32,1.56,3.32,3.48v61.86c0,1.92-1.49,3.48-3.32,3.48H22.05z"/>
		<g>
			<path class="st1" d="M292.93,16.54H22.05c-2.92,0-5.28,2.48-5.28,5.54v61.85c0,3.06,2.36,5.54,5.28,5.54h217.42v-4.11H22.05
				c-0.75,0-1.36-0.64-1.36-1.43V22.07c0-0.79,0.61-1.43,1.36-1.43h270.88c0.75,0,1.36,0.64,1.36,1.43v61.85
				c0,0.79-0.61,1.43-1.36,1.43h-33.39v4.11h33.39c2.92,0,5.28-2.48,5.28-5.54V22.07C298.21,19.01,295.85,16.54,292.93,16.54z"/>
		</g>
	</g>
	<g>
		<g>
			<g>
				<path class="st2" d="M156.38,74.9c-1.99-0.19-3.03-0.24-3.55-1.23c-0.47-0.99-0.62-1.56-0.71-6.29l-0.29-17.18
					c-0.04-2.98,0-4.97,0.71-6.15c0.52-0.99,1.32-0.99,3.36-1.18c0.33-0.04,0.43-0.14,0.43-0.66c0-0.52-0.1-0.62-0.43-0.62
					c-1.75,0.1-3.88,0.14-5.63,0.14c-1.66,0-3.55,0-5.16-0.04c-0.66,2.32-1.28,4.16-2.03,6.15l-5.77,15.19
					c-0.99,2.6-1.23,3.41-2.18,5.68c-0.95-2.46-1.32-3.41-2.32-5.77l-6.62-15.8c-0.76-1.8-1.37-3.5-1.94-5.44
					c-1.94,0.04-3.88,0.04-5.58,0.04c-1.56,0-3.55-0.04-5.44-0.14c-0.24,0-0.38,0.1-0.38,0.62c0,0.57,0.14,0.62,0.42,0.66
					c1.66,0.19,3.12,0.19,3.79,1.18c0.71,1.09,0.71,3.03,0.62,6.15l-0.46,16.86l2.27,0.8c0-0.16,0-0.32,0-0.48l0.09-20.72h0.57
					l7.52,17.88c1.17,2.74,2.14,5.01,3.07,7.28c0.5,1.22,0.98,2.44,1.48,3.74c0.14,0.37,0.19,0.52,0.95,0.52
					c0.62,0,0.76-0.14,0.9-0.52c0.31-0.77,0.61-1.51,0.92-2.25c1.14-2.78,2.32-5.57,4-9.72l6.91-16.94h0.43l0.19,20.72
					c0.05,3.17,0.05,5.25-0.57,6.29c-0.52,1.04-1.47,1.04-3.31,1.23c-0.28,0.05-0.37,0.14-0.37,0.57c0,0.2,0.01,0.33,0.04,0.42
					c0.05,0.16,0.15,0.19,0.33,0.19c2.04-0.1,4.4-0.14,6.67-0.14c2.08,0,4.87,0.05,7.05,0.14c0.37,0,0.47-0.1,0.47-0.57
					C156.81,75.04,156.71,74.95,156.38,74.9z"/>
			</g>
			<g>
				<path class="st2" d="M124.35,75.47c0,0.52-0.1,0.62-0.52,0.62c-1.8-0.1-3.45-0.14-5.44-0.14c-1.89,0-3.69,0.05-5.49,0.14
					c-0.33,0-0.47-0.1-0.47-0.57c0-0.48,0.14-0.57,0.47-0.62c1.14-0.19,2.51-0.47,3.17-1.47c0.66-1.09,1.04-3.08,1.14-6.06
					l0.01-0.32l2.27,0.8c0.03,2.61,0.31,4.64,0.89,5.58c0.61,0.95,2.27,1.28,3.5,1.47C124.31,74.95,124.35,75.04,124.35,75.47z"/>
			</g>
			<path class="st2" d="M163.33,62.27c0-1.8-0.05-3.12-0.24-4.02c-0.24-0.76-0.71-1.04-1.75-0.95l-1.23,0.09
				c-0.47,0.05-0.57,0.05-0.62-0.52c-0.05-0.57,0-0.62,0.52-0.71c1.85-0.43,5.44-1.42,7.66-2.18c0.33,0,0.57,0.19,0.57,0.47
				c-0.14,3.45-0.19,6.1-0.19,8.37v6.2c0,2.84,0,4.31,0.33,5.06c0.38,0.71,1.18,0.71,2.7,0.8c0.28,0.05,0.33,0.19,0.33,0.62
				c0,0.47-0.05,0.57-0.33,0.57c-1.7-0.05-3.64-0.14-5.25-0.14c-1.56,0-3.74,0.09-5.35,0.14c-0.38,0-0.47-0.09-0.47-0.57
				c0-0.43,0.09-0.62,0.43-0.62c1.37-0.09,2.13-0.14,2.51-0.8c0.47-0.8,0.38-2.32,0.38-5.06V62.27z"/>
			<path class="st3" d="M168.54,43.96c0,1.66-1.61,3.22-3.12,3.22c-1.66,0-3.26-1.56-3.26-3.22c0-1.66,1.61-3.17,3.26-3.17
				C166.93,40.79,168.54,42.3,168.54,43.96z"/>
			<g>
				<path class="st2" d="M173.93,57.21c-0.47,0.05-0.61,0-0.66-0.52c-0.05-0.52,0.05-0.62,0.57-0.71c1.94-0.38,5.35-1.32,7.48-2.08
					c0.28,0,0.57,0.19,0.57,0.38c-0.09,1.32-0.09,2.79-0.09,4.02c1.66-2.84,4.31-4.49,7.33-4.49c1.42,0,6.91,0.76,6.91,6.77
					c0,1.75-0.05,4.12-0.05,5.25v3.26c0,2.84,0.05,4.31,0.38,5.02c0.33,0.71,1.09,0.76,2.46,0.9c0.28,0.05,0.38,0.14,0.38,0.57
					c0,0.43-0.05,0.52-0.38,0.52c-1.75-0.05-3.55-0.14-5.16-0.14c-1.66,0-3.6,0.09-5.39,0.14c-0.33,0-0.38-0.09-0.38-0.52
					c0-0.47,0.09-0.57,0.38-0.57c1.28-0.09,2.03-0.14,2.41-0.9c0.38-0.76,0.38-2.27,0.38-5.02v-6.43c0-1.37,0.09-2.6-0.57-4.07
					c-0.62-1.42-1.61-2.37-3.45-2.37c-1.7,0-3.36,1.18-4.26,2.7c-0.85,1.42-0.99,2.27-0.99,3.78v6.39c0,2.84-0.05,4.31,0.28,5.02
					c0.38,0.76,1.14,0.76,2.6,0.9c0.33,0.05,0.43,0.09,0.43,0.57c0,0.47-0.09,0.52-0.43,0.52c-1.66-0.05-3.5-0.14-5.06-0.14
					c-1.7,0-3.64,0.09-5.44,0.14c-0.28,0-0.33-0.09-0.33-0.52c0-0.47,0.09-0.52,0.33-0.57c1.37-0.14,2.13-0.14,2.51-0.9
					c0.38-0.76,0.33-2.27,0.33-5.02v-7c0-1.75,0-3.12-0.33-3.97c-0.28-0.8-0.66-1.04-1.47-0.99L173.93,57.21z"/>
			</g>
			<g>
				<path class="st2" d="M207.14,65.25c0,6.25,3.83,9.37,6.77,9.37c3.08,0,4.83-1.04,6.58-3.41c0.14-0.19,0.33-0.24,0.47-0.24
					s0.28,0.09,0.43,0.19c0.19,0.14,0.38,0.33,0.38,0.47c0,0.09-0.09,0.28-0.24,0.52c-2.18,3.36-4.83,4.68-8.75,4.68
					c-6.53,0-10.93-4.83-10.93-11.35c0-6.39,4.54-11.69,10.98-11.69c6.25,0,9.08,5.49,9.23,8.8c0,0.38,0,0.47-0.24,0.8
					c-0.24,0.28-0.43,0.24-0.71,0.24c-4.78-0.14-9.56-0.19-13.77-0.09C207.24,63.97,207.14,64.44,207.14,65.25z M216.42,61.7
					c0.38-0.05,0.43-0.33,0.43-0.76c-0.14-2.65-1.28-5.73-4.02-5.73c-2.56,0-4.54,2.74-5.25,6.62
					C210.88,61.94,213.11,61.94,216.42,61.7z"/>
			</g>
			<g>
				<path class="st2" d="M225.03,57.25c-0.52,0.05-0.62,0-0.66-0.52c-0.05-0.52,0.05-0.62,0.57-0.71c1.85-0.38,5.35-1.32,7.57-2.13
					c0.33,0,0.62,0.19,0.62,0.43c-0.05,1.32-0.14,2.74-0.14,4.64c1.42-2.55,3.41-5.2,6.1-5.2c1.61,0,2.6,0.62,2.6,1.47
					c0,1.89-1.42,3.55-2.56,3.55c-1.04,0-1.7-1.04-2.65-1.04c-0.57,0-1.23,0.24-2.18,1.42c-0.9,1.09-1.33,2.37-1.33,4.16v5.77
					c0,2.84,0,4.35,0.33,5.02c0.38,0.76,1.14,0.76,2.79,0.9c0.28,0,0.33,0.09,0.33,0.62c0,0.43-0.09,0.47-0.33,0.47
					c-1.8-0.05-3.79-0.14-5.35-0.14c-1.61,0-3.79,0.09-5.54,0.14c-0.28,0-0.38-0.05-0.38-0.47c0-0.52,0.09-0.57,0.38-0.62
					c1.42-0.14,2.18-0.14,2.51-0.9c0.43-0.8,0.47-2.27,0.47-5.02v-7c0-1.7-0.09-2.98-0.38-3.88c-0.24-0.85-0.8-1.09-1.61-1.04
					L225.03,57.25z"/>
			</g>
			<g>
				<path class="st2" d="M253.89,67.76c0.52,1.47,0.76,2.32,1.23,3.93c0.62-1.66,0.95-2.46,1.47-4.16l1.99-6.2
					c0.76-2.37,0.99-3.97,0.61-4.68c-0.33-0.62-1.18-0.8-2.46-0.95c-0.24-0.05-0.33-0.09-0.33-0.57s0.09-0.57,0.38-0.57
					c1.37,0.09,3.17,0.14,4.45,0.14c1.37,0,2.74-0.05,3.97-0.14c0.38,0,0.47,0.09,0.47,0.57s-0.09,0.52-0.47,0.57
					c-0.8,0.09-1.75,0.47-2.41,1.14c-0.8,0.85-1.51,2.27-2.37,4.49l-3.17,8.8c-0.9,2.46-1.23,3.5-1.99,5.54
					c-2.41,0.99-2.65,1.09-2.89,1.09c-0.19,0-0.33-0.09-0.43-0.28c-0.66-1.99-1.23-3.6-2.18-6.2l-3.36-8.94
					c-1.04-2.6-1.56-4.12-2.22-4.87c-0.61-0.62-1.14-0.66-2.51-0.76c-0.28-0.05-0.38-0.09-0.38-0.57s0.05-0.57,0.38-0.57
					c1.8,0.05,3.88,0.14,5.44,0.14c1.66,0,3.93-0.05,5.73-0.14c0.33,0,0.38,0.09,0.38,0.57s-0.05,0.57-0.33,0.57
					c-1.32,0.05-2.37,0.14-2.65,0.8c-0.24,0.66,0.33,2.18,1.32,4.83L253.89,67.76z"/>
			</g>
			<g>
				<path class="st2" d="M284.45,70.74c-0.05,3.03,0.62,4.16,1.7,4.16c0.57,0,0.85-0.05,1.37-0.33c0.19-0.09,0.43-0.09,0.61,0.24
					s0.19,0.47-0.14,0.71c-0.8,0.61-2.18,1.09-4.02,1.09c-2.03,0-3.41-0.99-4.02-2.55c-1.7,1.7-3.36,2.79-6.62,2.79
					c-4.64,0-6.06-2.89-6.06-5.01c0-2.08,0.62-3.12,1.61-4.21c1.42-1.28,3.12-1.7,6.06-2.6c2.08-0.61,2.98-1.14,3.69-1.7
					c0.62-0.47,1.09-1.18,1.09-1.85v-1.32c0-3.55-0.9-5.02-2.84-5.02c-0.76,0-1.66,0.14-2.46,0.95c-0.66,0.57-0.85,1.47-0.85,2.65
					c0,1.28-1.18,2.27-3.64,2.27c-1.47,0-1.85-0.57-1.85-1.51c0-2.22,3.64-5.68,9.46-5.68c6.96,0,7.05,3.36,7,7.05L284.45,70.74z
					 M279.72,64.07c-0.47,0.71-1.14,1.09-3.79,2.08c-2.51,0.99-3.45,2.56-3.45,4.97c0,2.51,1.7,3.88,2.98,3.88
					c2.46,0,4.21-1.89,4.21-4.12L279.72,64.07z"/>
			</g>
		</g>
		<g>
			<polygon class="st2" points="96.65,30.38 96.65,76.77 100.36,76.77 100.36,28.15 96.65,28.15 			"/>
		</g>
		<g>
			<g>
				<path class="st4" d="M76.85,61.08l-0.14,0.98l-0.84,0.84l-0.14,0.7l-0.7,0.28v2.1c0,0,0.14,2.1-0.84,1.82l-1.4,0.42v1.4h-0.42
					v0.56h-0.28c0,0-0.28,0.42-1.26,0.84c0,0-0.42,3.36-3.08,3.22l-1.82-0.56v3.08H46.24c1.41-0.97,4.11-3.3,5.81-7.71l0.98-2.8
					l-0.35-0.21l0.42-1.12c0,0-1.12-0.84-1.54-1.68c-0.42-0.84,0.84-1.68,0.84-1.68l0.7-1.4l-0.98-1.4l0.28-1.54
					c0,0-0.14-0.7-0.28-1.68c-0.14-0.98,1.68-2.52,1.68-2.52c-0.28-1.26,1.54-1.68,1.54-1.68l0.77-2.59
					c10.93-10.37,21.16,2.8,21.16,2.8l0.14,1.12l1.82,2.94C79.79,58.84,76.85,61.08,76.85,61.08z"/>
			</g>
			<g>
				<polygon class="st4" points="38.88,54.07 47.98,71.86 49.53,70.88 39.86,54.07 				"/>
			</g>
			<g>
				<polygon class="st4" points="33.96,52.69 35.2,52.88 37.49,77.17 35.41,76.86 				"/>
			</g>
			<g>
				<polygon class="st4" points="44.76,52.11 50.51,58.27 50.51,56.45 45.88,51.27 				"/>
			</g>
			<g>
				<polygon class="st4" points="49.24,47.07 49.81,46.09 55.13,49.03 54.57,50.57 				"/>
			</g>
			<g>
				<polygon class="st4" points="51.21,42.86 51.49,41.6 60.17,44.83 58.21,46.09 				"/>
			</g>
			<g>
				<polygon class="st4" points="84.27,43.49 84.27,46.16 52.19,38.52 52.19,36.56 				"/>
			</g>
			<g>
				<circle class="st4" cx="39.12" cy="40.42" r="11.04"/>
			</g>
		</g>
	</g>
	<rect x="111.19" y="78.32" class="st3" width="177.27" height="2.17"/>
</g>
</svg>
