<?xml version="1.0" encoding="utf-8"?>
<!-- Generator: Adobe Illustrator 24.1.0, SVG Export Plug-In . SVG Version: 6.00 Build 0)  -->
<svg version="1.1" id="Layer_1" xmlns="http://www.w3.org/2000/svg" xmlns:xlink="http://www.w3.org/1999/xlink" x="0px" y="0px"
	 viewBox="0 0 732.85 196.81" style="enable-background:new 0 0 732.85 196.81;" xml:space="preserve">
<style type="text/css">
	.st0{fill:#04B89F;}
	.st1{fill:#088972;}
	.st2{fill:#FFFFFF;}
	.st3{fill:#EE3166;}
	.st4{fill:none;stroke:#04B89F;stroke-miterlimit:10;}
	.st5{fill:#FFD000;}
	.st6{fill:#FFFFFF;stroke:#EE3166;stroke-miterlimit:10;}
	.st7{fill:none;stroke:#04B89F;stroke-width:4;stroke-miterlimit:10;}
	.st8{fill:#AE3059;}
</style>
<g>
	<polyline class="st0" points="489.34,142.41 493.45,142.41 602.08,142.41 641.08,181.41 154.08,181.41 115.08,142.41 
		164.58,142.41 	"/>
	<path class="st1" d="M315.95,162.66l-16.58-15.61c-1.04-0.98-0.49-2.72,0.92-2.93l11.4-1.7L315.95,162.66z"/>
	<path class="st2" d="M493.45,64.22v88.15c0,6.89-5.6,12.5-12.5,12.5h-65.76c-6.4,0-11.69-4.82-12.42-11.02h-0.33
		c-0.25,6.67-5.75,12.02-12.49,12.02h-65.76c-6.9,0-12.51-5.61-12.51-12.5V65.22c0-6.89,5.61-12.5,12.51-12.5h65.76
		c6.9,0,12.5,5.61,12.5,12.5v2.67h0.23v-3.67c0-6.89,5.61-12.5,12.51-12.5h65.76C487.85,51.72,493.45,57.33,493.45,64.22z"/>
	<polygon class="st3" points="150.48,114.67 167.97,129 274.93,129.06 253.35,114.67 	"/>
	<polyline class="st4" points="276.58,142.41 311.68,142.41 315.79,142.41 	"/>
	<g>
		<path class="st3" d="M480.95,51.72h-65.76c-6.9,0-12.51,5.61-12.51,12.5v8.97h2.38c0.66,0,1.26-0.24,1.73-0.62v-8.35
			c0-4.62,3.77-8.39,8.4-8.39h65.76c4.63,0,8.39,3.77,8.39,8.39v88.15c0,4.63-3.76,8.39-8.39,8.39h-65.76
			c-4.35,0-7.94-3.32-8.36-7.56c-0.03-0.27-0.04-0.55-0.04-0.83v-3.19c-0.47-0.39-1.07-0.63-1.73-0.63h-2.38v3.82
			c0,0.5,0.03,1,0.09,1.48c0.73,6.2,6.02,11.02,12.42,11.02h65.76c6.9,0,12.5-5.61,12.5-12.5V64.22
			C493.45,57.33,487.85,51.72,480.95,51.72z"/>
	</g>
	<g>
		<path class="st3" d="M389.95,52.72h-65.76c-6.9,0-12.51,5.61-12.51,12.5v88.15c0,6.89,5.61,12.5,12.51,12.5h65.76
			c6.74,0,12.24-5.35,12.49-12.02c0.01-0.16,0.01-0.32,0.01-0.48v-4.82h-2.6c-0.56,0-1.08,0.17-1.51,0.47v4.35c0,0.01,0,0.01,0,0.02
			c-0.01,4.62-3.77,8.37-8.39,8.37h-65.76c-4.63,0-8.4-3.76-8.4-8.39V65.22c0-4.62,3.77-8.39,8.4-8.39h65.76
			c4.63,0,8.39,3.77,8.39,8.39v7.51c0.43,0.29,0.95,0.46,1.51,0.46h2.6v-7.97C402.45,58.33,396.85,52.72,389.95,52.72z"/>
	</g>
	<g>
		<path class="st0" d="M407.74,70.54c0,0.73-0.3,1.4-0.78,1.88c-0.05,0.05-0.11,0.1-0.17,0.15c-0.47,0.38-1.07,0.62-1.73,0.62h-5.21
			c-0.56,0-1.08-0.17-1.51-0.46c-0.71-0.47-1.17-1.28-1.17-2.19c0-0.73,0.3-1.39,0.79-1.87c0.12-0.12,0.25-0.22,0.38-0.31
			c0.43-0.3,0.95-0.47,1.51-0.47h5.21c0.66,0,1.26,0.24,1.73,0.63C407.37,69,407.74,69.73,407.74,70.54z"/>
	</g>
	<g>
		<path class="st0" d="M405.06,82.16h-5.21c-1.48,0-2.68-1.19-2.68-2.65v0c0-1.46,1.2-2.65,2.68-2.65h5.21
			c1.48,0,2.68,1.19,2.68,2.65v0C407.74,80.97,406.54,82.16,405.06,82.16z"/>
	</g>
	<g>
		<path class="st0" d="M405.06,91.12h-5.21c-1.48,0-2.68-1.19-2.68-2.65v0c0-1.46,1.2-2.65,2.68-2.65h5.21
			c1.48,0,2.68,1.19,2.68,2.65v0C407.74,89.93,406.54,91.12,405.06,91.12z"/>
	</g>
	<g>
		<path class="st0" d="M405.06,100.08h-5.21c-1.48,0-2.68-1.19-2.68-2.65v0c0-1.46,1.2-2.65,2.68-2.65h5.21
			c1.48,0,2.68,1.19,2.68,2.65v0C407.74,98.9,406.54,100.08,405.06,100.08z"/>
	</g>
	<g>
		<path class="st0" d="M405.06,109.04h-5.21c-1.48,0-2.68-1.19-2.68-2.65v0c0-1.46,1.2-2.65,2.68-2.65h5.21
			c1.48,0,2.68,1.19,2.68,2.65v0C407.74,107.86,406.54,109.04,405.06,109.04z"/>
	</g>
	<g>
		<path class="st0" d="M405.06,118.01h-5.21c-1.48,0-2.68-1.19-2.68-2.65v0c0-1.46,1.2-2.65,2.68-2.65h5.21
			c1.48,0,2.68,1.19,2.68,2.65v0C407.74,116.82,406.54,118.01,405.06,118.01z"/>
	</g>
	<g>
		<path class="st0" d="M405.06,126.97h-5.21c-1.48,0-2.68-1.19-2.68-2.65v0c0-1.46,1.2-2.65,2.68-2.65h5.21
			c1.48,0,2.68,1.19,2.68,2.65v0C407.74,125.78,406.54,126.97,405.06,126.97z"/>
	</g>
	<g>
		<path class="st0" d="M405.06,135.93h-5.21c-1.48,0-2.68-1.19-2.68-2.65v0c0-1.46,1.2-2.65,2.68-2.65h5.21
			c1.48,0,2.68,1.19,2.68,2.65v0C407.74,134.74,406.54,135.93,405.06,135.93z"/>
	</g>
	<g>
		<path class="st0" d="M405.06,144.89h-5.21c-1.48,0-2.68-1.19-2.68-2.65l0,0c0-1.46,1.2-2.65,2.68-2.65h5.21
			c1.48,0,2.68,1.19,2.68,2.65l0,0C407.74,143.71,406.54,144.89,405.06,144.89z"/>
	</g>
	<g>
		<path class="st0" d="M407.74,151.2c0,0.73-0.3,1.4-0.78,1.88c-0.04,0.04-0.09,0.08-0.13,0.12c-0.48,0.4-1.09,0.65-1.77,0.65h-5.21
			c-0.56,0-1.08-0.17-1.51-0.46c-0.71-0.47-1.17-1.28-1.17-2.19c0-0.73,0.3-1.39,0.79-1.87c0.12-0.12,0.25-0.22,0.38-0.31
			c0.43-0.3,0.95-0.47,1.51-0.47h5.21c0.66,0,1.26,0.24,1.73,0.63C407.37,149.66,407.74,150.39,407.74,151.2z"/>
	</g>
	<g>
		<g>
			<path class="st5" d="M477.54,86.95h-59.33c-0.88,0-1.6-0.89-1.6-1.99v0c0-1.1,0.72-1.99,1.6-1.99h59.33c0.88,0,1.6,0.89,1.6,1.99
				v0C479.14,86.06,478.42,86.95,477.54,86.95z"/>
		</g>
	</g>
	<g>
		<g>
			<path class="st5" d="M477.54,75.03h-59.33c-0.88,0-1.6-0.89-1.6-1.99l0,0c0-1.1,0.72-1.99,1.6-1.99h59.33
				c0.88,0,1.6,0.89,1.6,1.99l0,0C479.14,74.14,478.42,75.03,477.54,75.03z"/>
		</g>
	</g>
	<g>
		<g>
			<path class="st5" d="M477.54,98.57h-59.33c-0.88,0-1.6-0.89-1.6-1.99l0,0c0-1.1,0.72-1.99,1.6-1.99h59.33
				c0.88,0,1.6,0.89,1.6,1.99l0,0C479.14,97.68,478.42,98.57,477.54,98.57z"/>
		</g>
	</g>
	<g>
		<g>
			<path class="st5" d="M477.54,110.18h-59.33c-0.88,0-1.6-0.89-1.6-1.99v0c0-1.1,0.72-1.99,1.6-1.99h59.33
				c0.88,0,1.6,0.89,1.6,1.99v0C479.14,109.29,478.42,110.18,477.54,110.18z"/>
		</g>
	</g>
	<g>
		<g>
			<path class="st5" d="M477.54,121.8h-59.33c-0.88,0-1.6-0.89-1.6-1.99l0,0c0-1.1,0.72-1.99,1.6-1.99h59.33
				c0.88,0,1.6,0.89,1.6,1.99l0,0C479.14,120.91,478.42,121.8,477.54,121.8z"/>
		</g>
	</g>
	<g>
		<g>
			<path class="st5" d="M477.54,133.41h-59.33c-0.88,0-1.6-0.89-1.6-1.99l0,0c0-1.1,0.72-1.99,1.6-1.99h59.33
				c0.88,0,1.6,0.89,1.6,1.99l0,0C479.14,132.52,478.42,133.41,477.54,133.41z"/>
		</g>
	</g>
	<g>
		<g>
			<path class="st5" d="M477.54,145.03h-59.33c-0.88,0-1.6-0.89-1.6-1.99l0,0c0-1.1,0.72-1.99,1.6-1.99h59.33
				c0.88,0,1.6,0.89,1.6,1.99l0,0C479.14,144.14,478.42,145.03,477.54,145.03z"/>
		</g>
	</g>
	<g>
		<g>
			<path class="st5" d="M386.54,86.95h-59.33c-0.88,0-1.6-0.89-1.6-1.99v0c0-1.1,0.72-1.99,1.6-1.99h59.33c0.88,0,1.6,0.89,1.6,1.99
				v0C388.14,86.06,387.42,86.95,386.54,86.95z"/>
		</g>
	</g>
	<g>
		<g>
			<path class="st5" d="M386.54,75.03h-59.33c-0.88,0-1.6-0.89-1.6-1.99l0,0c0-1.1,0.72-1.99,1.6-1.99h59.33
				c0.88,0,1.6,0.89,1.6,1.99l0,0C388.14,74.14,387.42,75.03,386.54,75.03z"/>
		</g>
	</g>
	<g>
		<g>
			<path class="st5" d="M386.54,98.57h-59.33c-0.88,0-1.6-0.89-1.6-1.99l0,0c0-1.1,0.72-1.99,1.6-1.99h59.33
				c0.88,0,1.6,0.89,1.6,1.99l0,0C388.14,97.68,387.42,98.57,386.54,98.57z"/>
		</g>
	</g>
	<g>
		<g>
			<path class="st5" d="M386.54,110.18h-59.33c-0.88,0-1.6-0.89-1.6-1.99v0c0-1.1,0.72-1.99,1.6-1.99h59.33
				c0.88,0,1.6,0.89,1.6,1.99v0C388.14,109.29,387.42,110.18,386.54,110.18z"/>
		</g>
	</g>
	<g>
		<g>
			<path class="st5" d="M386.54,121.8h-59.33c-0.88,0-1.6-0.89-1.6-1.99l0,0c0-1.1,0.72-1.99,1.6-1.99h59.33
				c0.88,0,1.6,0.89,1.6,1.99l0,0C388.14,120.91,387.42,121.8,386.54,121.8z"/>
		</g>
	</g>
	<g>
		<g>
			<path class="st5" d="M386.54,133.41h-59.33c-0.88,0-1.6-0.89-1.6-1.99l0,0c0-1.1,0.72-1.99,1.6-1.99h59.33
				c0.88,0,1.6,0.89,1.6,1.99l0,0C388.14,132.52,387.42,133.41,386.54,133.41z"/>
		</g>
	</g>
	<g>
		<g>
			<path class="st5" d="M386.54,145.03h-59.33c-0.88,0-1.6-0.89-1.6-1.99l0,0c0-1.1,0.72-1.99,1.6-1.99h59.33
				c0.88,0,1.6,0.89,1.6,1.99l0,0C388.14,144.14,387.42,145.03,386.54,145.03z"/>
		</g>
	</g>
	<g>
		<g>
			<path class="st0" d="M498.97,79.2l-4.13,4.13l7.56,7.56l4.13-4.13c1.04-1.04,1.04-2.73,0-3.77l-3.79-3.79
				C501.71,78.16,500.01,78.16,498.97,79.2z"/>
			<path class="st0" d="M494.85,83.33l-41.55,41.55c-1.05,1.05-1.05,2.74-0.01,3.78l3.79,3.79c1.04,1.04,2.73,1.04,3.78-0.01
				l41.55-41.55L494.85,83.33z"/>
			<line class="st0" x1="494.71" y1="83.19" x2="494.85" y2="83.33"/>
			<polygon class="st0" points="448.57,137.46 452.77,126.83 458.99,133.05 			"/>
		</g>
		<g>
			<polygon class="st0" points="448.57,137.47 420.69,137.47 420.69,135.97 449.45,135.97 			"/>
		</g>
	</g>
	<path class="st6" d="M272.63,126.91H168.53c-2.18,0-3.95-1.77-3.95-3.95v-10.09c0-2.18,1.77-3.95,3.95-3.95h104.09
		c2.18,0,3.95,1.77,3.95,3.95v10.09C276.58,125.14,274.81,126.91,272.63,126.91z"/>
	<polygon class="st3" points="164.58,164.91 145.58,147.91 145.58,136.91 164.58,151.91 	"/>
	<polygon class="st3" points="164.58,144.91 145.58,127.91 145.58,116.91 164.58,131.91 	"/>
	<polygon class="st3" points="164.58,124.91 145.58,107.91 145.58,96.91 164.58,111.91 	"/>
	<line class="st7" x1="186.58" y1="117.91" x2="259.58" y2="117.91"/>
	<polygon class="st8" points="151.05,94.59 145.58,96.91 164.58,111.91 168.53,108.91 	"/>
	<polygon class="st8" points="150.99,114.73 145.53,117.06 164.53,132.06 168.48,129.06 	"/>
	<polygon class="st8" points="151.18,134.63 145.71,136.95 164.71,151.95 168.67,148.95 	"/>
	<polygon class="st3" points="151.18,134.63 168.67,148.95 274.78,149 254.04,134.63 	"/>
	<polygon class="st3" points="151.05,94.59 168.53,108.91 274.93,109.25 253.91,94.59 	"/>
	<path class="st6" d="M272.63,146.91H168.53c-2.18,0-3.95-1.77-3.95-3.95v-10.09c0-2.18,1.77-3.95,3.95-3.95h104.09
		c2.18,0,3.95,1.77,3.95,3.95v10.09C276.58,145.14,274.81,146.91,272.63,146.91z"/>
	<line class="st7" x1="186.58" y1="137.91" x2="259.58" y2="137.91"/>
	<path class="st6" d="M272.63,166.91H168.53c-2.18,0-3.95-1.77-3.95-3.95v-10.09c0-2.18,1.77-3.95,3.95-3.95h104.09
		c2.18,0,3.95,1.77,3.95,3.95v10.09C276.58,165.14,274.81,166.91,272.63,166.91z"/>
	<line class="st7" x1="186.58" y1="157.91" x2="259.58" y2="157.91"/>
</g>
</svg>
