<?xml version="1.0" encoding="utf-8"?>
<!-- Generator: Adobe Illustrator 24.1.0, SVG Export Plug-In . SVG Version: 6.00 Build 0)  -->
<svg version="1.1" id="Layer_1" xmlns="http://www.w3.org/2000/svg" xmlns:xlink="http://www.w3.org/1999/xlink" x="0px" y="0px"
	 viewBox="0 0 257.71 242.97" style="enable-background:new 0 0 257.71 242.97;" xml:space="preserve">
<style type="text/css">
	.st0{fill:#010101;}
	.st1{fill:#E2884D;stroke:#010101;stroke-width:2;stroke-miterlimit:10;}
	.st2{fill:none;stroke:#FFFFFF;stroke-width:2;stroke-miterlimit:10;}
</style>
<g>
	<rect x="63.82" y="73.34" class="st0" width="129.67" height="88.42"/>
	<g>
		<path class="st1" d="M64.22,57.69"/>
		<path class="st2" d="M63.82,73.34l51.66,44.57c1.71,1.48,3.43,2.97,5.14,4.45c1.4,1.21,2.79,2.42,4.19,3.63
			c1.1,0.95,2.4,1.85,3.36,2.93c0.24,0.27,0.69,0.43,1.1,0.36c0.97-0.16,1.01-0.64,1.42-1c0.54-0.46,1.07-0.93,1.61-1.39
			c1.33-1.15,2.65-2.3,3.98-3.45c2.06-1.78,4.12-3.57,6.18-5.35c0.07-0.06,0.14-0.12,0.21-0.18l51.23-44.38"/>
		<line class="st2" x1="115.47" y1="117.91" x2="64.22" y2="161.95"/>
		<line class="st2" x1="193.89" y1="161.95" x2="142.66" y2="117.91"/>
	</g>
</g>
</svg>
