<?xml version="1.0" encoding="utf-8"?>
<!-- Generator: Adobe Illustrator 24.1.0, SVG Export Plug-In . SVG Version: 6.00 Build 0)  -->
<svg version="1.1" id="Layer_1" xmlns="http://www.w3.org/2000/svg" xmlns:xlink="http://www.w3.org/1999/xlink" x="0px" y="0px"
	 viewBox="0 0 242.29 242.04" style="enable-background:new 0 0 242.29 242.04;" xml:space="preserve">
<style type="text/css">
	.st0{fill:#00AC62;}
	.st1{fill:#FFFFFF;}
</style>
<g>
	<circle class="st0" cx="121.15" cy="121.02" r="116"/>
</g>
<g>
	<g>
		<path class="st1" d="M171.5,202.92H73.49l-19-128.58h130.15L171.5,202.92z M83.66,191.13h77.19L171.6,86.12H68.15L83.66,191.13z"
			/>
	</g>
	<rect x="95.47" y="103.29" class="st1" width="6.64" height="69.68"/>
	<rect x="118.38" y="103.29" class="st1" width="6.64" height="69.68"/>
	<rect x="142.27" y="103.29" class="st1" width="6.64" height="69.68"/>
	<path class="st1" d="M194.25,64.66l-0.68,7.47L48.01,58.91l0.68-7.47c0.41-4.41,4.3-7.65,8.71-7.24l44.54,4.05l0.18-1.85
		c0.38-4.41,4.28-7.65,8.71-7.24l23.4,2.13c4.43,0.38,7.67,4.28,7.27,8.69l-0.18,1.85l45.66,4.13
		C191.39,56.35,194.63,60.25,194.25,64.66z"/>
</g>
</svg>
