<?xml version="1.0" encoding="utf-8"?>
<!-- Generator: Adobe Illustrator 24.1.0, SVG Export Plug-In . SVG Version: 6.00 Build 0)  -->
<svg version="1.1" id="Layer_1" xmlns="http://www.w3.org/2000/svg" xmlns:xlink="http://www.w3.org/1999/xlink" x="0px" y="0px"
	 viewBox="0 0 225.3 225.06" style="enable-background:new 0 0 225.3 225.06;" xml:space="preserve">
<style type="text/css">
	.st0{fill:#EC3366;}
	.st1{fill:#FFFFFF;}
	.st2{fill:#B6335C;}
	.st3{fill:#00B69C;}
	.st4{fill:#FFCF06;}
</style>
<g>
	<g>
		<path class="st0" d="M176.41,66.8v77.59c0,6.32-3.41,11.85-8.49,14.83c-1.32,0.78-2.75,1.39-4.25,1.79
			c-1.43,0.39-2.93,0.59-4.49,0.59H24.99c-9.5,0-17.21-7.71-17.21-17.21V66.8c0-9.5,7.71-17.21,17.21-17.21h134.2
			C168.7,49.59,176.41,57.3,176.41,66.8z"/>
		<path class="st1" d="M112.84,107.53l-24.29,24.29c-3.5,3.5-9.49,1.02-9.49-3.93V79.3c0-4.95,5.99-7.43,9.49-3.93l24.29,24.29
			C115.02,101.83,115.02,105.35,112.84,107.53z"/>
	</g>
	<g>
		<path class="st2" d="M213.28,147.38c0,10.18-5.7,19.03-14.09,23.53c-2.63,0.88-5.44,1.34-8.36,1.34
			c-9.74,0-18.26-5.23-22.91-13.04c-1.32,0.78-2.75,1.39-4.25,1.79c-1.97-3.3-3.25-7.07-3.62-11.09c-1.32,0.48-2.67,0.89-4.09,1.24
			c0,0,4.58-22.66,20.44-31.56v1.08c1.47-1.19,3.05-2.27,4.76-3.18c0.01,0,0.04-0.01,0.05-0.03c2.85-0.94,5.99-1.45,9.45-1.4
			c0,0-0.34,1.08-1.05,2.87c-0.23,0.55-0.49,1.18-0.79,1.87c1.08,0.09,2.14,0.24,3.17,0.45
			C204.15,123.74,213.28,134.5,213.28,147.38z"/>
	</g>
	<g>
		<path class="st0" d="M217.52,145.57c0,11.82-7.68,21.84-18.33,25.35c-2.63,0.88-5.44,1.34-8.36,1.34
			c-9.74,0-18.26-5.23-22.91-13.04c-1.98-3.31-3.26-7.08-3.64-11.11c-0.09-0.84-0.13-1.69-0.13-2.54c0-9.41,4.88-17.69,12.25-22.44
			c3.84-2.47,8.36-3.99,13.21-4.2c0.4-0.03,0.8-0.04,1.22-0.04c0.75,0,1.49,0.03,2.23,0.1
			C206.76,120.12,217.52,131.59,217.52,145.57z"/>
		<path class="st3" d="M194.91,114.25c0,0-0.58,1.86-1.84,4.74c-0.31,0.69-0.66,1.45-1.07,2.26c-2.8,5.7-7.76,13.8-15.59,20.04
			c-3.46,2.76-7.48,5.15-12.12,6.82c-1.32,0.48-2.67,0.89-4.09,1.24c0,0,3.75-18.55,16.21-28.68c1.47-1.19,3.05-2.27,4.76-3.18
			c0.01,0,0.04-0.01,0.05-0.03C185.09,115.41,189.63,114.17,194.91,114.25z"/>
		<path class="st4" d="M201.98,135.06c0,0,8.43,4.92,6.15,20.01C206.74,148.28,204.62,141.62,201.98,135.06z"/>
	</g>
</g>
</svg>
